<svg xmlns="http://www.w3.org/2000/svg" viewBox="0 0 96 96" role="img" aria-labelledby="title desc">
  <title id="title">Birre</title>
  <desc id="desc">Icona flat di due bottiglie di birra.</desc>
  <path d="M29 12h13v14l5 9v46c0 5-4 9-9 9h-5c-5 0-9-4-9-9V35l5-9V12z" fill="#166534"/>
  <path d="M55 12h13v14l5 9v46c0 5-4 9-9 9h-5c-5 0-9-4-9-9V35l5-9V12z" fill="#15803d"/>
  <path d="M29 12h13v11H29V12zM55 12h13v11H55V12z" fill="#854d0e"/>
  <path d="M24 46h23v24H24V46z" fill="#facc15"/>
  <path d="M50 46h23v24H50V46z" fill="#fde047"/>
  <path d="M30 54h11M56 54h11" fill="none" stroke="#fef9c3" stroke-width="4" stroke-linecap="round"/>
  <path d="M31 34v45M57 34v45" fill="none" stroke="#86efac" stroke-width="4" stroke-linecap="round" opacity="0.6"/>
  <ellipse cx="35" cy="88" rx="12" ry="3" fill="#064e3b" opacity="0.25"/>
  <ellipse cx="61" cy="88" rx="12" ry="3" fill="#064e3b" opacity="0.25"/>
</svg>
