<svg xmlns="http://www.w3.org/2000/svg" viewBox="0 0 96 96" role="img" aria-labelledby="title desc">
  <title id="title">Pane</title>
  <desc id="desc">Icona flat di una baguette dorata.</desc>
  <path d="M16 63c10-20 33-38 60-45 7-2 12 4 9 11-10 23-35 41-63 48-7 2-11-7-6-14z" fill="#d97706"/>
  <path d="M18 61c12-17 33-31 58-38 4-1 7 2 5 6-10 18-33 34-58 40-4 1-7-4-5-8z" fill="#fbbf24"/>
  <path d="M34 54c2-6 6-10 12-12M50 45c2-6 6-10 12-12M65 36c2-5 5-8 10-10" fill="none" stroke="#92400e" stroke-width="5" stroke-linecap="round" opacity="0.75"/>
</svg>
