<svg xmlns="http://www.w3.org/2000/svg" viewBox="0 0 96 96" role="img" aria-labelledby="title desc">
  <title id="title">Yogurt</title>
  <desc id="desc">Icona flat di un vasetto di yogurt.</desc>
  <path d="M25 33h46l-6 51c-1 6-6 10-13 10h-8c-7 0-12-4-13-10l-6-51z" fill="#f8fafc"/>
  <path d="M28 51h40l-3 27c-1 6-6 9-13 9h-8c-7 0-12-3-13-9l-3-27z" fill="#f472b6"/>
  <ellipse cx="48" cy="33" rx="28" ry="9" fill="#e5e7eb"/>
  <ellipse cx="48" cy="29" rx="22" ry="6" fill="#f8fafc"/>
  <circle cx="43" cy="62" r="5" fill="#be123c"/>
  <circle cx="55" cy="69" r="4" fill="#be123c"/>
  <path d="M35 58c7-5 17-5 26 0" fill="none" stroke="#fbcfe8" stroke-width="5" stroke-linecap="round"/>
</svg>
